<mxfile host="65bd71144e">
    <diagram id="d3jTm-r_jnEw1nLcdMp0" name="Page-1">
        <mxGraphModel dx="1514" dy="978" grid="1" gridSize="10" guides="1" tooltips="1" connect="1" arrows="1" fold="1" page="1" pageScale="1" pageWidth="850" pageHeight="1100" math="0" shadow="0">
            <root>
                <mxCell id="0"/>
                <mxCell id="1" parent="0"/>
                <mxCell id="42" value="Usuario" style="swimlane;whiteSpace=wrap;html=1;" parent="1" vertex="1">
                    <mxGeometry x="65" y="80" width="720" height="930" as="geometry"/>
                </mxCell>
                <mxCell id="57" style="edgeStyle=none;html=1;exitX=0.5;exitY=1;exitDx=0;exitDy=0;entryX=0.5;entryY=0;entryDx=0;entryDy=0;" parent="42" source="2" target="5" edge="1">
                    <mxGeometry relative="1" as="geometry"/>
                </mxCell>
                <mxCell id="2" value="&lt;font face=&quot;Times New Roman&quot;&gt;Inicio&lt;/font&gt;" style="ellipse;whiteSpace=wrap;html=1;" parent="42" vertex="1">
                    <mxGeometry x="300" y="40" width="120" height="80" as="geometry"/>
                </mxCell>
                <mxCell id="60" style="edgeStyle=none;html=1;exitX=0.5;exitY=1;exitDx=0;exitDy=0;entryX=0.5;entryY=0;entryDx=0;entryDy=0;" edge="1" parent="42" source="5" target="24">
                    <mxGeometry relative="1" as="geometry"/>
                </mxCell>
                <mxCell id="5" value="Solicitud para Saber en Qué Invertir" style="rounded=1;whiteSpace=wrap;html=1;fontFamily=Times New Roman;" parent="42" vertex="1">
                    <mxGeometry x="293" y="140" width="135" height="70" as="geometry"/>
                </mxCell>
                <mxCell id="76" style="edgeStyle=none;html=1;exitX=0;exitY=1;exitDx=0;exitDy=0;entryX=0.5;entryY=0;entryDx=0;entryDy=0;" edge="1" parent="42" source="24" target="62">
                    <mxGeometry relative="1" as="geometry">
                        <Array as="points">
                            <mxPoint x="268" y="340"/>
                        </Array>
                    </mxGeometry>
                </mxCell>
                <mxCell id="77" style="edgeStyle=none;html=1;exitX=1;exitY=1;exitDx=0;exitDy=0;entryX=0.5;entryY=0;entryDx=0;entryDy=0;" edge="1" parent="42" source="24" target="63">
                    <mxGeometry relative="1" as="geometry">
                        <Array as="points">
                            <mxPoint x="448" y="340"/>
                        </Array>
                    </mxGeometry>
                </mxCell>
                <mxCell id="78" style="edgeStyle=none;html=1;exitX=0;exitY=0.5;exitDx=0;exitDy=0;entryX=0.5;entryY=0;entryDx=0;entryDy=0;" edge="1" parent="42" source="24" target="61">
                    <mxGeometry relative="1" as="geometry">
                        <Array as="points">
                            <mxPoint x="91" y="340"/>
                        </Array>
                    </mxGeometry>
                </mxCell>
                <mxCell id="79" style="edgeStyle=none;html=1;exitX=1;exitY=0.5;exitDx=0;exitDy=0;entryX=0.5;entryY=0;entryDx=0;entryDy=0;" edge="1" parent="42" source="24" target="75">
                    <mxGeometry relative="1" as="geometry">
                        <Array as="points">
                            <mxPoint x="628" y="340"/>
                        </Array>
                    </mxGeometry>
                </mxCell>
                <mxCell id="24" value="Decisión" style="rhombus;whiteSpace=wrap;html=1;fontFamily=Times New Roman;" parent="42" vertex="1">
                    <mxGeometry x="305" y="230" width="110" height="100" as="geometry"/>
                </mxCell>
                <mxCell id="81" style="edgeStyle=none;html=1;exitX=0.5;exitY=1;exitDx=0;exitDy=0;entryX=0;entryY=0.5;entryDx=0;entryDy=0;" edge="1" parent="42" source="61" target="80">
                    <mxGeometry relative="1" as="geometry">
                        <Array as="points">
                            <mxPoint x="91" y="480"/>
                        </Array>
                    </mxGeometry>
                </mxCell>
                <mxCell id="61" value="Aprender &lt;br&gt;sobre Inversiones" style="rounded=1;whiteSpace=wrap;html=1;fontFamily=Times New Roman;" vertex="1" parent="42">
                    <mxGeometry x="25.5" y="380" width="130" height="70" as="geometry"/>
                </mxCell>
                <mxCell id="83" style="edgeStyle=none;html=1;exitX=0.5;exitY=1;exitDx=0;exitDy=0;entryX=0.25;entryY=0;entryDx=0;entryDy=0;" edge="1" parent="42" source="62" target="80">
                    <mxGeometry relative="1" as="geometry">
                        <Array as="points">
                            <mxPoint x="268" y="480"/>
                        </Array>
                    </mxGeometry>
                </mxCell>
                <mxCell id="62" value="Consultar a un&lt;br&gt;Asesor Financiero" style="rounded=1;whiteSpace=wrap;html=1;fontFamily=Times New Roman;" vertex="1" parent="42">
                    <mxGeometry x="200.5" y="380" width="135" height="70" as="geometry"/>
                </mxCell>
                <mxCell id="84" style="edgeStyle=none;html=1;exitX=0.5;exitY=1;exitDx=0;exitDy=0;entryX=0.75;entryY=0;entryDx=0;entryDy=0;" edge="1" parent="42" source="63" target="80">
                    <mxGeometry relative="1" as="geometry">
                        <Array as="points">
                            <mxPoint x="448" y="480"/>
                        </Array>
                    </mxGeometry>
                </mxCell>
                <mxCell id="63" value="Buscar Información en Redes Sociales" style="rounded=1;whiteSpace=wrap;html=1;fontFamily=Times New Roman;" vertex="1" parent="42">
                    <mxGeometry x="380.5" y="380" width="135" height="70" as="geometry"/>
                </mxCell>
                <mxCell id="82" style="edgeStyle=none;html=1;exitX=0.5;exitY=1;exitDx=0;exitDy=0;entryX=1;entryY=0.5;entryDx=0;entryDy=0;" edge="1" parent="42" source="75" target="80">
                    <mxGeometry relative="1" as="geometry">
                        <Array as="points">
                            <mxPoint x="628" y="480"/>
                        </Array>
                    </mxGeometry>
                </mxCell>
                <mxCell id="75" value="Preguntar a Familiares &lt;br&gt;o Amigos" style="rounded=1;whiteSpace=wrap;html=1;fontFamily=Times New Roman;" vertex="1" parent="42">
                    <mxGeometry x="560.5" y="380" width="135" height="70" as="geometry"/>
                </mxCell>
                <mxCell id="86" style="edgeStyle=none;html=1;exitX=0.5;exitY=1;exitDx=0;exitDy=0;entryX=0.5;entryY=0;entryDx=0;entryDy=0;" edge="1" parent="42" source="80" target="85">
                    <mxGeometry relative="1" as="geometry"/>
                </mxCell>
                <mxCell id="80" value="Evaluar Validez de&amp;nbsp;&lt;br&gt;la Información" style="rounded=1;whiteSpace=wrap;html=1;fontFamily=Times New Roman;" vertex="1" parent="42">
                    <mxGeometry x="295" y="520" width="130" height="70" as="geometry"/>
                </mxCell>
                <mxCell id="4" value="&lt;font face=&quot;Times New Roman&quot;&gt;Fin&lt;/font&gt;" style="ellipse;whiteSpace=wrap;html=1;" parent="42" vertex="1">
                    <mxGeometry x="300" y="830" width="120" height="80" as="geometry"/>
                </mxCell>
                <mxCell id="90" style="edgeStyle=none;html=1;exitX=0.5;exitY=1;exitDx=0;exitDy=0;entryX=0.5;entryY=0;entryDx=0;entryDy=0;" edge="1" parent="42" source="85" target="89">
                    <mxGeometry relative="1" as="geometry"/>
                </mxCell>
                <mxCell id="85" value="Tomar Decisión de&lt;br&gt;Inversión" style="rounded=1;whiteSpace=wrap;html=1;fontFamily=Times New Roman;" vertex="1" parent="42">
                    <mxGeometry x="295.5" y="620" width="130" height="70" as="geometry"/>
                </mxCell>
                <mxCell id="91" style="edgeStyle=none;html=1;exitX=0.5;exitY=1;exitDx=0;exitDy=0;entryX=0.5;entryY=0;entryDx=0;entryDy=0;" edge="1" parent="42" source="89" target="4">
                    <mxGeometry relative="1" as="geometry"/>
                </mxCell>
                <mxCell id="89" value="Manejar Inversión&lt;br&gt;y Riesgo" style="rounded=1;whiteSpace=wrap;html=1;fontFamily=Times New Roman;" vertex="1" parent="42">
                    <mxGeometry x="295" y="720" width="130" height="70" as="geometry"/>
                </mxCell>
            </root>
        </mxGraphModel>
    </diagram>
</mxfile>